HIERARCHY
ROOT hip
{
	OFFSET 0.000000 0.000000 0.000000 
	CHANNELS 6 Xposition Yposition Zposition Xrotation Zrotation Yrotation
	JOINT abdomen
	{
		OFFSET 0.000000 3.402643 0.000000 
		CHANNELS 3 Xrotation Zrotation Yrotation
		JOINT chest
		{
			OFFSET 0.000000 8.438565 -0.680529 
			CHANNELS 3 Xrotation Zrotation Yrotation
			JOINT neck
			{
				OFFSET 0.000000 10.207942 -0.272212 
				CHANNELS 3 Xrotation Zrotation Yrotation
				JOINT head
				{
					OFFSET 0.000000 3.130431 0.000000 
					CHANNELS 3 Xrotation Zrotation Yrotation
					End Site
					{
						OFFSET 0.000000 3.130435 0.000000 
					}
				}
			}
			JOINT lCollar
			{
				OFFSET 3.470700 6.669187 -0.816635 
				CHANNELS 3 Yrotation Zrotation Xrotation
				JOINT lShldr
				{
					OFFSET 3.198488 0.000000 0.000000 
					CHANNELS 3 Zrotation Yrotation Xrotation
					JOINT lForeArm
					{
						OFFSET 10.139888 0.000000 0.000000 
						CHANNELS 3 Yrotation Zrotation Xrotation
						JOINT lHand
						{
							OFFSET 8.370511 0.000000 0.000000 
							CHANNELS 3 Zrotation Yrotation Xrotation
							End Site
							{
								OFFSET 4.083176 0.000000 0.000000 
							}
						}
					}
				}
			}
			JOINT rCollar
			{
				OFFSET -3.470700 6.669187 -0.816635 
				CHANNELS 3 Yrotation Zrotation Xrotation
				JOINT rShldr
				{
					OFFSET -3.198488 0.000000 0.000000 
					CHANNELS 3 Zrotation Yrotation Xrotation
					JOINT rForeArm
					{
						OFFSET -10.139888 0.000000 0.000000 
						CHANNELS 3 Yrotation Zrotation Xrotation
						JOINT rHand
						{
							OFFSET -8.370511 0.000000 0.000000 
							CHANNELS 3 Zrotation Yrotation Xrotation
							End Site
							{
								OFFSET -4.083176 0.000000 0.000000 
							}
						}
					}
				}
			}
		}
	}
	JOINT lThigh
	{
		OFFSET 5.308129 -1.633274 1.361059 
		CHANNELS 3 Xrotation Zrotation Yrotation
		JOINT lShin
		{
			OFFSET -2.041588 -20.007561 0.000000 
			CHANNELS 3 Xrotation Zrotation Yrotation
			JOINT lFoot
			{
				OFFSET 0.000000 -19.190928 -1.224953 
				CHANNELS 3 Xrotation Yrotation Zrotation
				End Site
				{
					OFFSET 0.000000 -2.449906 4.627600 
				}
			}
		}
	}
	JOINT rThigh
	{
		OFFSET -5.308129 -1.633274 1.361059 
		CHANNELS 3 Xrotation Zrotation Yrotation
		JOINT rShin
		{
			OFFSET 2.041588 -20.007561 0.000000 
			CHANNELS 3 Xrotation Zrotation Yrotation
			JOINT rFoot
			{
				OFFSET 0.000000 -19.190928 -1.224953 
				CHANNELS 3 Xrotation Yrotation Zrotation
				End Site
				{
					OFFSET 0.000000 -2.449906 4.627600 
				}
			}
		}
	}
}
MOTION
Frames: 20
Frame Time: 0.016667
1.339044 50.650375 2.121940 8.043277 1.346099 2.754752 5.026689 0.643979 2.373226 -6.180127 -5.249462 -2.364189 0.000000 0.000000 0.000000 -16.102745 -0.272683 -4.257904 0.172302 -1.848383 3.517568 -85.187134 28.487272 -11.566134 -58.949783 0.784262 0.256881 -17.538252 52.056725 -16.860857 -0.534533 10.582477 2.641313 72.732422 -30.617910 3.196728 68.058167 -0.441720 0.565907 -24.384056 -69.983597 35.081284 -6.509140 0.399527 0.380811 12.426421 -6.091706 -1.609084 -2.891101 -4.820721 -8.520376 -1.700113 -8.803163 -19.168507 11.938357 5.504533 0.949075 -5.705709 -0.456536 14.269118 
1.489414 50.646240 2.233959 8.039147 1.346292 2.579019 5.026689 0.643979 2.373226 -6.277497 -5.083694 -2.334109 0.000000 0.000000 0.000000 -16.184910 -0.360389 -4.130962 0.117292 -1.851759 3.625254 -85.173828 28.122414 -11.701920 -58.246124 0.788442 0.231263 -16.381607 50.035110 -15.637274 -0.494817 10.584313 2.850085 72.858139 -30.586580 2.930353 68.048767 -0.361006 0.602640 -24.698854 -70.402855 35.232243 -6.362430 0.312256 0.575522 12.679875 -6.035539 -1.666136 -2.969812 -4.532471 -8.608271 -1.894721 -8.846557 -19.079145 12.385132 5.403578 1.144462 -5.794791 -0.355364 14.093603 
1.662609 50.633831 2.366954 8.041327 1.219550 2.490917 5.110845 0.556167 2.363454 -6.277430 -4.908160 -2.304048 0.000000 0.000000 0.000000 -16.277084 -0.438322 -4.111506 0.020464 -1.857923 3.644778 -85.347954 27.876501 -11.907972 -57.458298 0.802238 0.372970 -15.430722 47.928432 -14.457297 -0.407038 10.588612 2.850099 73.059082 -30.535069 2.517646 68.143661 -0.343849 0.516419 -25.260950 -70.771767 35.570549 -6.305745 0.205250 0.746792 12.765868 -6.083174 -1.678622 -3.049818 -4.323642 -8.601948 -2.275897 -9.055732 -18.965424 13.009781 5.452388 1.309851 -5.928064 -0.340872 13.988822 
1.835795 50.621429 2.499939 8.033947 1.092796 2.393074 5.204716 0.468358 2.343832 -6.286136 -4.732585 -2.283743 0.000000 0.000000 0.000000 -16.368710 -0.526006 -4.082218 -0.076054 -1.873886 3.654531 -85.531715 27.627018 -12.107593 -56.661274 0.818385 0.515408 -14.583680 45.810051 -13.368970 -0.321084 10.592855 2.859704 73.258644 -30.490927 2.112664 68.229156 -0.336117 0.427522 -25.875443 -71.123459 35.974453 -6.248160 0.078079 0.917701 12.864511 -6.103715 -1.689499 -3.143137 -4.109045 -8.583127 -2.656483 -9.296456 -18.862041 13.620121 5.503153 1.474264 -6.036708 -0.315361 13.898376 
1.998805 50.592484 2.632411 8.045424 0.975838 2.207376 5.204716 0.468358 2.343832 -6.375718 -4.469534 -2.145864 0.000000 0.000000 0.000000 -16.450552 -0.613688 -4.062790 -0.053689 -1.872727 3.742377 -85.723282 27.457073 -12.373425 -56.141850 0.757689 0.467929 -13.726692 44.410217 -12.314567 -0.337520 10.592350 2.949687 73.261032 -30.494158 2.022711 68.317139 -0.327079 0.433096 -25.537518 -71.434044 35.405540 -6.099677 0.009750 1.092304 13.033526 -6.134346 -1.727112 -3.249587 -3.940698 -8.626351 -2.783523 -9.241922 -18.738569 13.875804 5.496812 1.476169 -6.022964 -0.444685 13.969073 
2.161806 50.563538 2.764877 8.047894 0.858840 2.021843 5.204716 0.468358 2.343832 -6.473452 -4.216171 -2.008021 0.000000 0.000000 0.000000 -16.542339 -0.701384 -4.033617 -0.031327 -1.871503 3.830223 -85.924591 27.283108 -12.628603 -55.612804 0.696135 0.419187 -12.927746 42.989376 -11.314734 -0.353955 10.591820 3.039668 73.263466 -30.497396 1.927805 68.405182 -0.327786 0.438613 -25.220436 -71.726875 34.852032 -5.961183 -0.068337 1.257577 13.205760 -6.181199 -1.767380 -3.355844 -3.782718 -8.663038 -2.910149 -9.202376 -18.656948 14.117149 5.496390 1.507068 -5.989325 -0.559667 14.034644 
2.294834 50.534592 2.877413 7.980350 0.917441 1.943736 5.191542 0.400080 2.255941 -6.477243 -4.128358 -1.997562 0.000000 0.000000 0.000000 -16.627274 -0.613755 -3.974904 -0.119038 -1.867668 3.849730 -86.021919 27.289406 -12.769605 -55.348572 0.681378 0.399794 -12.807449 42.664631 -11.086614 -0.351025 10.503992 3.047490 73.164505 -30.394745 2.052392 68.495186 -0.424517 0.487037 -25.220436 -71.726875 34.852032 -5.888173 -0.194761 1.446372 13.381025 -6.132291 -1.700986 -3.474836 -3.915052 -8.703896 -3.095834 -9.233370 -18.456570 14.464784 5.504433 1.373028 -6.096852 -0.535249 13.943521 
2.427857 50.505657 2.989945 7.922414 0.976045 1.865629 5.178946 0.341552 2.168047 -6.481694 -4.040569 -1.978073 0.000000 0.000000 0.000000 -16.712122 -0.526119 -3.906444 -0.196668 -1.872944 3.859470 -86.129898 27.293165 -12.915134 -55.084286 0.656662 0.380097 -12.679975 42.351048 -10.852557 -0.356023 10.415716 3.047499 73.075409 -30.301476 2.179110 68.585457 -0.521093 0.535148 -25.220436 -71.726875 34.852032 -5.810897 -0.341401 1.654026 13.555548 -6.082822 -1.634400 -3.571912 -4.069104 -8.752664 -3.280891 -9.270938 -18.279036 14.796615 5.524102 1.248371 -6.190823 -0.503905 13.844131 
2.497277 50.480846 3.067729 7.865729 1.034608 1.865635 5.188029 0.312260 2.246167 -6.386905 -4.040326 -2.075486 0.000000 0.000000 0.000000 -16.894413 -0.438468 -3.838077 -0.196668 -1.872944 3.859470 -86.137550 27.378675 -12.914346 -55.073593 0.599107 0.352242 -12.861320 42.701958 -11.004424 -0.356023 10.415716 3.047499 73.183838 -29.963879 2.273559 68.497513 -0.512149 0.537238 -24.585865 -71.558624 34.378830 -5.622226 -0.439276 1.912379 13.731338 -6.122214 -1.644824 -3.819142 -4.041961 -8.515283 -3.583569 -9.328480 -17.901802 15.062468 5.427374 1.192238 -6.317197 -0.511379 13.824875 
2.566690 50.456028 3.145508 7.809228 1.093164 1.875404 5.187662 0.292728 2.324288 -6.302572 -4.040096 -2.163846 0.000000 0.000000 0.000000 -17.075853 -0.360546 -3.769641 -0.196668 -1.872944 3.859470 -86.134636 27.466955 -12.918832 -55.072792 0.533479 0.329885 -13.047436 43.061962 -11.172237 -0.356023 10.415716 3.047499 73.302536 -29.624369 2.378364 68.409554 -0.512290 0.535734 -23.976805 -71.396156 33.930000 -5.439851 -0.565934 2.170549 13.927074 -6.141346 -1.635617 -4.063286 -4.021258 -8.300464 -3.886510 -9.401179 -17.525188 15.333433 5.338847 1.147227 -6.419005 -0.526510 13.822403 
2.567525 50.418816 3.171796 7.674694 1.210342 1.797299 5.193864 0.204909 2.324239 -6.214363 -4.030312 -2.173587 0.000000 0.000000 0.000000 -17.160038 -0.272864 -3.710988 -0.202587 -1.785252 3.859463 -86.250328 27.544327 -13.035432 -55.073956 0.622155 0.363422 -12.844505 43.173031 -11.253998 -0.339867 10.416250 2.957527 73.235664 -29.320978 2.525511 68.497635 -0.512829 0.540817 -23.940893 -71.295601 33.887947 -5.279649 -0.644295 2.420977 14.006360 -6.161680 -1.557353 -4.300842 -4.141825 -8.133562 -4.159805 -9.421369 -17.529873 15.963488 5.288770 1.379601 -6.517924 -0.692917 13.913033 
2.568352 50.381596 3.198073 7.539842 1.327527 1.719420 5.190674 0.126850 2.314469 -6.125783 -4.030285 -2.183328 0.000000 0.000000 0.000000 -17.244038 -0.185170 -3.652388 -0.199051 -1.696870 3.849401 -86.355240 27.623041 -13.133555 -55.085018 0.710762 0.396858 -12.644972 43.295204 -11.335690 -0.313957 10.417240 2.869322 73.156326 -29.023537 2.688457 68.585732 -0.513349 0.545843 -23.921629 -71.203712 33.862530 -5.136069 -0.741902 2.672138 14.094239 -6.161991 -1.477943 -4.535811 -4.256637 -7.975008 -4.442136 -9.435178 -17.504248 16.586699 5.252171 1.574292 -6.631013 -0.866783 14.032811 
2.507535 50.352654 3.142900 7.348550 1.513036 1.660867 5.278170 0.117092 2.314468 -6.121724 -4.118085 -2.193771 0.000000 0.000000 0.000000 -17.601450 -0.097474 -3.505871 -0.115501 -1.779300 3.839963 -86.147179 27.715919 -12.908197 -55.083981 0.759786 0.335373 -12.207946 43.277412 -11.046104 -0.399942 10.412981 2.857945 73.076714 -28.664661 2.814157 68.845482 -0.442298 0.433635 -24.227570 -71.337746 34.088459 -5.150996 -0.858647 2.847075 14.445760 -6.161873 -1.510518 -4.694225 -4.210504 -7.827859 -4.706676 -9.527637 -17.295500 17.188877 5.221983 1.631603 -6.850176 -1.038362 14.029356 
2.446702 50.323719 3.087695 7.156590 1.698563 1.592545 5.366041 0.117093 2.304703 -6.116915 -4.205856 -2.213260 0.000000 0.000000 0.000000 -17.958984 0.000000 -3.349610 -0.031327 -1.871503 3.830223 -85.938210 27.817396 -12.681780 -55.082893 0.826582 0.268297 -11.764657 43.269554 -10.737761 -0.497473 10.408190 2.857930 72.995621 -28.314661 2.945829 69.105988 -0.371590 0.320514 -24.511881 -71.476753 34.305058 -5.173240 -0.975982 3.032259 14.795271 -6.161308 -1.572286 -4.852370 -4.148590 -7.673603 -4.959250 -9.610628 -17.105370 17.785807 5.202861 1.679599 -7.057051 -1.216931 14.011086 
2.271594 50.311310 2.796008 6.961848 2.001383 1.368059 5.714763 0.048792 2.197273 -6.032328 -4.205602 -2.301630 0.000000 0.000000 0.000000 -18.480688 0.078016 -3.027341 -0.047949 -1.960430 3.742714 -85.657234 27.790316 -12.887927 -54.898777 0.675651 0.376241 -10.930001 43.103519 -10.262249 -0.497473 10.408190 2.857930 72.812721 -27.784910 3.424386 69.369911 -0.372629 0.330411 -24.437798 -71.559814 34.056484 -5.186580 -1.102868 3.314447 14.894250 -6.090688 -1.690184 -4.861476 -4.046504 -7.641233 -5.536425 -9.752480 -16.879879 18.521076 5.272135 1.693429 -7.334921 -1.128786 13.921715 
2.096500 50.298897 2.504318 6.774302 2.294466 1.143617 6.063745 -0.019518 2.080078 -5.937255 -4.205308 -2.399739 0.000000 0.000000 0.000000 -19.001947 0.165832 -2.695301 -0.065193 -2.049299 3.645127 -85.366982 27.758154 -13.090700 -54.714466 0.535180 0.485166 -10.090114 42.935318 -9.778607 -0.497473 10.408190 2.857930 72.642754 -27.252438 3.899431 69.633842 -0.373559 0.339965 -24.375175 -71.632729 33.834549 -5.210246 -1.229447 3.558186 14.984306 -6.045379 -1.751532 -4.865887 -3.970128 -7.588017 -6.083695 -9.861501 -16.662823 19.227631 5.331671 1.704289 -7.610462 -1.057549 13.824936 
2.014427 50.269958 2.186298 6.585693 2.480101 0.987517 6.577263 -0.146407 1.865228 -6.030490 -4.293092 -2.409489 0.000000 0.000000 0.000000 -19.790947 0.146370 -2.265618 -0.130202 -2.044144 3.752467 -85.356926 27.303473 -13.706952 -54.811600 0.606184 0.433343 -8.564698 42.395485 -9.402808 -0.557567 10.405323 2.760103 72.574615 -26.496475 4.300142 69.987167 -0.430930 0.394505 -24.888512 -71.802994 34.143967 -5.361640 -1.317516 3.764329 15.340591 -5.985867 -1.883888 -5.056413 -3.890225 -7.776999 -6.629507 -10.180657 -16.349266 20.186480 5.290698 1.878668 -7.856885 -1.398098 13.754477 
1.932356 50.241013 1.868259 6.395478 2.655977 0.821241 7.091781 -0.273325 1.640606 -6.113927 -4.380873 -2.419231 0.000000 0.000000 0.000000 -20.580839 0.146410 -1.826166 -0.204316 -2.049640 3.860148 -85.347977 26.840462 -14.333912 -54.908535 0.675587 0.376150 -7.049805 41.849991 -9.036729 -0.629218 10.402137 2.670111 72.504791 -25.747587 4.700541 70.350479 -0.487524 0.446782 -25.426746 -71.980583 34.479099 -5.502019 -1.414865 3.949878 15.687463 -5.948101 -1.989392 -5.243508 -3.811916 -7.892389 -7.175968 -10.492829 -16.032890 21.148296 5.262588 2.053777 -8.129175 -1.740605 13.671367 
1.855611 50.212063 1.449489 6.147420 2.900190 0.674941 7.784511 -0.322155 1.503883 -6.119623 -4.458896 -2.429725 0.000000 0.000000 0.000000 -21.725290 -0.185519 -0.996120 -0.420319 -2.066414 4.084506 -85.951569 26.362631 -16.448700 -55.339085 0.587890 0.444332 -4.940115 40.848190 -9.124339 -0.564796 10.316974 2.767956 72.362961 -24.850973 4.766208 70.514671 -0.401405 0.404067 -25.129374 -71.756393 33.966869 -5.871855 -1.463576 3.950204 16.208521 -5.978767 -2.040266 -5.441195 -3.498865 -8.045223 -8.211793 -10.866127 -15.658646 22.747526 5.232800 2.040900 -7.886451 -2.072814 13.480804 
1.778866 50.183121 1.030697 5.888346 3.144398 0.528157 8.477305 -0.380753 1.357392 -6.115110 -4.546675 -2.439466 0.000000 0.000000 0.000000 -22.879499 -0.498045 -0.156329 -0.635815 -2.094542 4.299381 -86.543312 25.869913 -18.560003 -55.769569 0.491070 0.516419 -2.865159 39.848457 -9.271693 -0.490325 10.232543 2.867554 72.228584 -23.963869 4.820724 70.688766 -0.314908 0.358577 -24.851101 -71.536385 33.463963 -6.259359 -1.523174 3.952026 16.745749 -6.017832 -2.104103 -5.633962 -3.182446 -8.173312 -9.256138 -11.216860 -15.267673 24.340059 5.203897 2.027260 -7.620831 -2.427585 13.291638 
